# xmcd CD database file
#
# Track frame offsets:
#	150
#	25847
#	56920
#	94232
#	110382
#	137869
#	163706
#	181315
#	219798
#	242073
#	270557
#
# Disc length: 3976 seconds
#
# Revision: 0
# Processed by: cddbd v1.5.2PL0 Copyright (c) Steve Scherf et al.
# Submitted via: CDex 1.70beta2
#
DISCID=970f860b
DTITLE=Fabien Mary - Quartet and One
DYEAR=2009
DGENRE=Jazz
TTITLE0=It's About Time
TTITLE1=Round Trip
TTITLE2=Little Stars
TTITLE3=Turbo
TTITLE4=Sweet And Lovely
TTITLE5=Change Partners
TTITLE6=The Things We Did Last Summer
TTITLE7=Apothegm
TTITLE8=Sleeves
TTITLE9=Is That So?
TTITLE10=Where Is The Bar?
EXTD=YEAR: 2009
EXTT0=
EXTT1=
EXTT2=
EXTT3=
EXTT4=
EXTT5=
EXTT6=
EXTT7=
EXTT8=
EXTT9=
EXTT10=
PLAYORDER=
